# xmcd
#
# Track frame offsets: 
#        150
#        17194
#        34081
#
# Disc length: 679 seconds
#
# Revision: 2
# Processed by: cddbd v1.5.2PL0 Copyright (c) Steve Scherf et al.
# Submitted via: ExactAudioCopyFreeDBPlugin 1.0
#
DISCID=1c02a503
DTITLE=Delta Goodrem - In This Life [CDS)
DYEAR=2008
DGENRE=Pop
TTITLE0=In This Life
TTITLE1=Take Me Home
TTITLE2=In This Life (Acoustic Mix)
EXTD=YEAR: 1996/01/21
EXTT0=
EXTT1=
EXTT2=
PLAYORDER=
